<mxfile host="app.diagrams.net" modified="2023-10-25T16:34:05.418Z" agent="Mozilla/5.0 (X11; Linux x86_64) AppleWebKit/537.36 (KHTML, like Gecko) Chrome/114.0.0.0 Safari/537.36" etag="HETYJEkICgALq79xAt4s" version="22.0.7" type="github">
  <diagram name="Page-1" id="2YuLy9kMkQXROwPrnKEZ">
    <mxGraphModel dx="1040" dy="627" grid="1" gridSize="10" guides="1" tooltips="1" connect="1" arrows="1" fold="1" page="1" pageScale="1" pageWidth="827" pageHeight="1169" math="0" shadow="0">
      <root>
        <mxCell id="0" />
        <mxCell id="1" parent="0" />
        <mxCell id="5_AaWadeRTCrCoPtHb4I-1" value="&lt;font style=&quot;font-size: 14px;&quot;&gt;Order&lt;br&gt;Service&lt;/font&gt;" style="rounded=0;whiteSpace=wrap;html=1;" vertex="1" parent="1">
          <mxGeometry x="80" y="80" width="120" height="120" as="geometry" />
        </mxCell>
        <mxCell id="5_AaWadeRTCrCoPtHb4I-2" value="&lt;font style=&quot;font-size: 14px;&quot;&gt;Inventory&lt;br&gt;Service&lt;/font&gt;" style="rounded=0;whiteSpace=wrap;html=1;" vertex="1" parent="1">
          <mxGeometry x="560" y="80" width="120" height="120" as="geometry" />
        </mxCell>
        <mxCell id="5_AaWadeRTCrCoPtHb4I-3" value="" style="endArrow=classic;html=1;rounded=0;entryX=-0.008;entryY=0.325;entryDx=0;entryDy=0;entryPerimeter=0;" edge="1" parent="1" target="5_AaWadeRTCrCoPtHb4I-2">
          <mxGeometry width="50" height="50" relative="1" as="geometry">
            <mxPoint x="200" y="120" as="sourcePoint" />
            <mxPoint x="440" y="270" as="targetPoint" />
          </mxGeometry>
        </mxCell>
        <mxCell id="5_AaWadeRTCrCoPtHb4I-4" value="&lt;font style=&quot;font-size: 14px;&quot;&gt;HTTP Request&lt;/font&gt;" style="text;html=1;align=center;verticalAlign=middle;resizable=0;points=[];autosize=1;strokeColor=none;fillColor=none;" vertex="1" parent="1">
          <mxGeometry x="330" y="88" width="120" height="30" as="geometry" />
        </mxCell>
        <mxCell id="5_AaWadeRTCrCoPtHb4I-5" value="" style="endArrow=classic;html=1;rounded=0;entryX=1.017;entryY=0.667;entryDx=0;entryDy=0;entryPerimeter=0;exitX=0.008;exitY=0.642;exitDx=0;exitDy=0;exitPerimeter=0;" edge="1" parent="1" source="5_AaWadeRTCrCoPtHb4I-2" target="5_AaWadeRTCrCoPtHb4I-1">
          <mxGeometry width="50" height="50" relative="1" as="geometry">
            <mxPoint x="390" y="330" as="sourcePoint" />
            <mxPoint x="440" y="280" as="targetPoint" />
          </mxGeometry>
        </mxCell>
        <mxCell id="5_AaWadeRTCrCoPtHb4I-6" value="&lt;font style=&quot;font-size: 14px;&quot;&gt;Response&lt;/font&gt;" style="text;html=1;align=center;verticalAlign=middle;resizable=0;points=[];autosize=1;strokeColor=none;fillColor=none;" vertex="1" parent="1">
          <mxGeometry x="345" y="158" width="90" height="30" as="geometry" />
        </mxCell>
        <mxCell id="5_AaWadeRTCrCoPtHb4I-7" value="&lt;font style=&quot;font-size: 18px;&quot;&gt;Synchronous Communication&lt;/font&gt;" style="text;html=1;align=center;verticalAlign=middle;resizable=0;points=[];autosize=1;strokeColor=none;fillColor=none;" vertex="1" parent="1">
          <mxGeometry x="260" y="220" width="260" height="40" as="geometry" />
        </mxCell>
      </root>
    </mxGraphModel>
  </diagram>
</mxfile>
